<svg width="24" height="24" viewBox="0 0 24 24" fill="none" xmlns="http://www.w3.org/2000/svg">
<g id="icon">
<path id="Vector" d="M7.70698 10.2929C7.51838 10.1108 7.26578 10.01 7.00358 10.0122C6.74138 10.0145 6.49057 10.1197 6.30516 10.3051C6.11975 10.4905 6.01458 10.7413 6.01231 11.0035C6.01003 11.2657 6.11082 11.5183 6.29298 11.7069L10.587 16.0009C11.368 16.7819 12.63 16.7839 13.413 16.0009L17.707 11.7069C17.8891 11.5183 17.9899 11.2657 17.9877 11.0035C17.9854 10.7413 17.8802 10.4905 17.6948 10.3051C17.5094 10.1197 17.2586 10.0145 16.9964 10.0122C16.7342 10.01 16.4816 10.1108 16.293 10.2929L12 14.5859L7.70698 10.2929Z" fill="#9299A2"/>
</g>
</svg>
