<svg width="24" height="24" viewBox="0 0 24 24" fill="none" xmlns="http://www.w3.org/2000/svg">
<path d="M2.70711 21.3735C2.31658 20.983 2.31658 20.3498 2.70711 19.9593L19.9592 2.70714C20.3498 2.31661 20.9829 2.31661 21.3735 2.70714C21.764 3.09766 21.764 3.73083 21.3735 4.12135L4.12132 21.3735C3.7308 21.764 3.09763 21.764 2.70711 21.3735Z" fill="#333333"/>
<path d="M2.70696 2.70711C3.09748 2.31658 3.73065 2.31658 4.12117 2.70711L21.3733 19.9592C21.7638 20.3498 21.7638 20.9829 21.3733 21.3735C20.9828 21.764 20.3496 21.764 19.9591 21.3735L2.70696 4.12132C2.31643 3.7308 2.31643 3.09763 2.70696 2.70711Z" fill="#333333"/>
</svg>
