<svg width="24" height="24" viewBox="0 0 24 24" fill="none" xmlns="http://www.w3.org/2000/svg">
<g id="icon">
<path id="Rectangle 1" d="M0 12C0 11.4477 0.447715 11 1 11H16C16.5523 11 17 11.4477 17 12C17 12.5523 16.5523 13 16 13H1C0.447715 13 0 12.5523 0 12Z" fill="#333333"/>
<path id="Rectangle 3" d="M0 6C0 5.44772 0.447715 5 1 5H23C23.5523 5 24 5.44772 24 6C24 6.55228 23.5523 7 23 7H1C0.447716 7 0 6.55228 0 6Z" fill="#333333"/>
<path id="Rectangle 2" d="M0 18C0 17.4477 0.447715 17 1 17H16C16.5523 17 17 17.4477 17 18C17 18.5523 16.5523 19 16 19H1C0.447715 19 0 18.5523 0 18Z" fill="#333333"/>
</g>
</svg>
