<svg width="24" height="24" viewBox="0 0 24 24" fill="none" xmlns="http://www.w3.org/2000/svg">
<path d="M5.04376 10.6013C9.07463 8.76089 11.7556 7.55061 13.1055 6.97047C16.9208 5.30007 17.7176 5 18.2425 5C18.355 5 18.6175 5.03001 18.7768 5.17004C18.8832 5.27019 18.9502 5.40953 18.9643 5.56013C18.9925 5.67016 19.0112 5.93022 18.9925 6.13027C18.7862 8.41081 17.8863 13.9521 17.427 16.5127C17.2395 17.603 16.8552 17.9631 16.4896 17.9931C15.6834 18.0731 15.0834 17.443 14.296 16.9128C13.0774 16.0726 12.3931 15.5525 11.2119 14.7423C9.85269 13.8021 10.7432 13.292 11.5119 12.4418C11.7181 12.2217 15.2522 8.86092 15.3178 8.55084C15.3272 8.52084 15.3365 8.3708 15.2522 8.30078C15.1772 8.22077 15.0553 8.25077 14.971 8.27078C14.8491 8.30078 12.9086 9.6411 9.14025 12.3017C8.59655 12.7018 8.09035 12.8819 7.64039 12.8719C7.15294 12.8719 6.20615 12.5818 5.50309 12.3417C4.6313 12.0417 3.94699 11.8916 4.00323 11.3915C4.04073 11.1315 4.3782 10.8714 5.03439 10.5913L5.04376 10.6013Z" fill="#4E89D1"/>
</svg>
